P2
# image générée par Image::affichage
100	100
255
150 150 150 150 150 150 150 150 150 150 150 150 150 100 100 100 100 100 100 100 100 100 100 100 100 100 100 100 100 100 100 100 100 100 100 100 100 100 100 100 100 50 50 50 50 50 50 50 50 50 50 50 50 50 50 50 50 50 50 100 100 100 0 0 0 0 0 0 0 0 0 0 0 0 0 100 100 100 100 100 100 100 100 100 100 100 150 150 150 150 150 150 150 150 150 150 150 150 150 150 150 150 150 150 150 150 150 150 150 150 150 150 150 150 150 100 100 100 100 100 100 100 100 100 100 100 100 100 100 100 100 100 100 100 100 100 100 100 100 100 100 50 50 50 50 50 50 50 50 50 50 50 50 50 50 50 50 50 0 0 0 0 0 0 0 0 0 0 0 0 0 0 0 0 0 0 0 100 100 100 100 100 100 100 150 150 150 150 150 150 150 150 150 150 150 150 150 150 150 150 150 150 150 150 150 150 150 150 150 150 150 150 150 150 150 150 150 100 100 100 100 100 100 100 100 100 100 100 100 100 100 100 100 100 100 100 100 100 100 100 100 100 50 50 50 50 50 50 50 50 50 50 50 50 50 50 0 0 0 0 0 0 0 0 0 0 0 0 0 0 0 0 0 0 0 0 0 0 100 100 100 100 150 150 150 150 150 150 150 150 150 150 150 150 150 150 150 150 150 150 150 150 150 150 150 150 150 150 150 150 150 150 150 150 150 150 150 150 150 100 100 100 100 100 100 100 100 100 100 100 100 100 100 100 100 100 100 100 100 100 100 100 50 50 50 50 50 50 50 50 50 50 50 0 0 0 0 0 0 0 0 0 0 0 50 50 50 50 50 50 50 50 50 50 0 0 0 0 0 0 150 150 150 150 150 150 150 150 150 150 150 150 150 150 150 150 150 150 150 150 150 150 150 150 150 150 150 150 150 150 150 150 150 150 150 150 150 150 150 150 150 100 100 100 100 100 100 100 100 100 100 100 100 100 100 100 100 100 100 100 100 100 100 50 50 50 50 50 50 50 50 0 0 0 0 0 0 0 0 0 0 0 0 50 50 50 50 50 50 50 50 50 50 50 50 0 0 0 0 0 0 150 150 150 150 150 150 150 150 150 150 150 150 150 150 150 150 150 150 150 150 150 150 150 150 150 150 150 150 150 150 150 150 150 150 150 150 150 150 150 150 150 150 100 100 100 100 100 100 100 100 100 100 100 100 100 100 100 100 100 100 100 100 50 50 50 50 50 50 50 0 0 0 0 0 0 100 100 100 100 100 100 50 50 50 50 50 50 50 50 50 50 50 50 50 50 0 0 0 0 0 0 150 150 150 150 150 150 150 150 150 150 150 150 150 150 150 150 150 150 150 150 150 150 150 150 150 150 150 150 150 150 150 150 150 150 150 150 150 150 150 150 150 150 150 100 100 100 100 100 100 100 100 100 100 100 100 100 100 100 100 100 100 100 50 50 50 50 50 0 0 0 0 0 0 50 100 100 100 100 100 100 100 50 50 50 50 50 50 50 50 50 50 50 50 50 50 0 0 0 0 0 0 150 150 150 150 150 150 150 150 150 150 150 150 150 150 150 150 150 150 150 150 150 150 150 150 150 150 150 150 150 150 150 150 150 150 150 150 150 150 150 150 150 150 150 150 100 100 100 100 100 100 100 100 100 100 100 100 100 100 100 100 100 50 50 50 0 0 0 0 0 0 0 50 100 100 100 100 100 100 100 100 100 100 100 100 100 100 100 100 100 150 150 50 50 50 50 50 0 0 0 0 0 150 150 150 150 150 150 150 150 150 150 150 150 150 150 150 150 150 150 150 150 150 150 150 150 150 150 150 150 150 150 150 150 150 150 150 150 150 150 150 150 150 150 150 150 150 100 100 100 100 100 100 100 100 100 100 100 100 100 100 100 100 50 0 0 0 0 0 0 0 50 50 100 100 100 100 100 100 100 100 100 100 100 100 100 100 100 150 150 150 150 150 50 50 50 50 50 0 0 0 0 0 150 150 150 150 150 150 150 150 150 150 150 150 150 150 150 150 150 150 150 150 150 150 150 150 150 150 150 150 150 150 150 150 150 150 150 150 150 150 150 150 150 150 150 150 150 150 100 100 100 100 100 100 100 100 100 100 100 100 100 100 0 0 0 0 0 0 50 50 50 100 100 100 100 100 100 100 100 100 100 100 100 100 100 150 150 150 150 150 150 150 150 50 50 50 50 50 0 0 0 0 0 150 150 150 150 150 150 150 150 150 150 150 150 150 150 150 150 150 150 150 150 150 150 150 150 150 150 150 150 150 150 150 150 150 150 150 150 150 150 150 150 150 150 150 150 150 150 150 100 100 100 100 100 100 100 100 100 100 0 0 0 0 0 0 0 50 50 50 50 100 100 100 100 100 100 100 100 100 100 100 100 150 150 150 150 150 150 150 150 150 150 150 50 50 50 50 50 0 0 0 0 0 150 150 150 150 150 150 150 150 150 150 150 150 150 150 150 150 150 150 150 150 150 150 150 150 150 150 150 150 150 150 150 150 150 150 150 150 150 150 150 150 150 150 150 150 150 150 150 150 100 100 100 100 100 100 100 0 0 0 0 0 0 50 50 50 50 50 100 100 100 100 100 100 100 100 100 100 100 150 150 150 150 150 150 150 150 150 150 150 150 150 50 50 50 50 50 50 0 0 0 0 150 150 150 150 150 150 150 150 150 150 150 150 150 150 150 150 150 150 150 150 150 150 150 150 150 150 150 150 150 150 150 150 150 150 150 150 150 150 150 150 150 150 150 150 150 150 150 150 150 150 100 100 100 100 0 0 0 0 0 0 50 50 50 50 50 50 100 100 100 100 100 100 100 100 100 150 150 150 150 150 150 150 150 150 150 150 150 150 150 150 150 50 50 50 50 50 0 0 0 0 150 150 150 150 150 150 150 150 150 150 150 150 150 150 150 150 150 150 150 150 150 150 150 150 150 150 150 150 150 150 150 150 150 150 150 150 150 150 150 150 150 150 150 150 150 150 150 150 150 150 150 150 100 0 0 0 0 0 0 100 50 50 50 50 50 100 100 100 100 100 100 100 100 150 150 150 150 150 150 150 150 150 150 150 150 150 150 150 150 150 150 50 50 50 50 50 0 0 0 0 150 150 150 150 150 150 150 150 150 150 150 150 150 150 150 150 150 150 150 150 150 150 150 150 150 150 150 150 150 150 150 150 150 150 150 150 150 150 150 150 150 150 150 150 150 150 150 150 150 150 150 150 0 0 0 0 0 0 100 100 100 50 50 50 50 100 100 100 100 100 100 150 150 150 150 150 150 150 150 150 150 150 150 150 150 150 150 150 150 150 150 50 50 50 50 50 0 0 0 0 150 150 150 150 150 150 150 150 150 150 150 150 150 150 150 150 150 150 150 150 150 150 150 150 150 150 150 150 150 150 150 150 150 150 150 150 150 150 150 150 150 150 150 150 150 150 150 150 150 150 150 0 0 0 0 0 0 100 100 100 100 50 50 50 100 100 100 100 100 150 150 150 150 150 150 150 150 150 150 150 150 150 150 150 150 150 150 150 150 150 150 50 50 50 50 50 0 0 0 150 150 150 150 150 150 150 150 150 150 150 150 150 150 150 150 150 150 150 150 150 150 150 150 150 150 150 150 150 150 150 150 150 150 150 150 150 150 150 150 150 150 150 150 150 150 150 150 150 150 150 0 0 0 0 0 0 150 150 100 100 100 100 50 50 100 100 100 150 150 150 150 150 150 150 150 150 150 150 150 150 150 150 150 150 150 150 150 150 150 150 150 50 50 50 50 50 0 0 0 150 150 150 150 150 150 150 150 150 150 150 150 150 150 150 150 150 150 150 150 150 150 150 150 150 150 150 150 150 150 150 150 150 150 150 150 150 150 150 150 150 150 150 150 150 150 150 150 150 0 0 0 0 0 0 150 150 150 150 150 150 100 100 50 100 100 150 150 150 150 150 150 150 150 150 150 150 150 150 150 150 150 150 150 150 150 150 150 150 150 150 150 50 50 50 50 0 0 0 0 150 150 150 150 150 150 150 150 150 150 150 150 150 150 150 150 150 150 150 150 150 150 150 150 150 150 150 150 150 150 150 150 150 150 150 150 150 150 150 150 150 150 150 150 150 150 150 150 0 0 0 0 0 0 150 150 150 150 150 150 150 150 150 100 150 150 150 150 150 150 150 150 150 150 150 150 150 150 150 150 150 150 150 150 150 150 150 150 150 150 150 150 50 50 50 0 0 0 0 150 150 150 150 150 150 150 150 150 150 150 150 150 150 150 150 150 150 150 150 150 150 150 150 150 150 150 150 150 150 150 150 150 150 150 150 150 150 150 150 150 150 150 150 150 150 150 150 0 0 0 0 0 0 150 150 150 150 150 150 150 150 150 200 250 200 150 150 150 150 150 150 150 150 150 150 150 150 150 150 150 150 150 150 150 150 150 150 150 150 150 150 150 50 50 50 0 0 0 0 150 150 150 150 150 150 150 150 150 150 150 150 150 150 150 150 150 150 150 150 150 150 150 150 150 150 150 150 150 150 150 150 150 150 150 150 150 150 150 150 150 150 150 150 150 150 150 0 0 0 0 0 0 150 150 150 150 150 150 150 150 200 200 200 250 250 200 200 150 150 150 150 150 150 150 150 150 150 150 150 150 150 150 150 150 150 150 150 150 150 150 150 150 50 50 0 0 0 0 150 150 150 150 150 150 150 150 150 150 150 150 150 150 150 150 150 150 150 150 150 150 150 150 150 150 150 150 150 150 150 150 150 150 150 150 150 150 150 150 150 150 150 150 150 150 150 0 0 0 0 0 0 150 150 150 150 150 150 150 200 200 200 200 250 250 250 200 200 200 200 150 150 150 150 150 150 150 150 150 150 150 150 150 150 150 150 150 150 150 150 150 150 150 50 0 0 0 0 0 150 150 150 150 150 150 150 150 150 150 150 150 150 150 150 150 150 150 150 150 150 150 150 150 150 150 150 150 150 150 150 150 150 150 150 150 150 150 150 150 150 150 150 150 150 150 0 0 0 0 0 0 150 150 150 150 150 150 200 200 200 200 200 200 250 250 250 250 200 200 200 200 200 150 150 150 150 150 150 150 150 150 150 150 150 150 150 150 150 150 150 150 150 150 50 0 0 0 0 0 150 150 150 150 150 150 150 150 150 150 150 150 150 150 150 150 150 150 150 150 150 150 150 150 150 150 150 150 150 150 150 150 150 150 150 150 150 150 150 150 150 150 150 150 150 0 0 0 0 0 150 150 150 150 150 150 200 200 200 200 200 200 200 250 250 250 250 250 200 200 200 200 200 200 200 150 150 150 150 150 150 150 150 150 150 150 150 150 150 150 150 150 150 150 50 0 0 0 0 150 150 150 150 150 150 150 150 150 150 150 150 150 150 150 150 150 150 150 150 150 150 150 150 150 150 150 150 150 150 150 150 150 150 150 150 150 150 150 150 150 150 150 150 150 0 0 0 0 0 150 150 150 150 150 200 200 200 200 200 200 200 200 200 250 250 250 250 250 250 200 200 200 200 200 200 200 200 150 150 150 150 150 150 150 150 150 150 150 150 150 150 150 150 150 0 0 0 0 0 150 150 150 150 150 150 150 150 150 150 150 150 150 150 150 150 150 150 150 150 150 150 150 150 150 150 150 150 150 150 150 150 150 150 150 150 150 150 150 150 150 150 150 150 0 0 0 0 0 150 150 150 150 200 200 200 200 200 200 200 200 200 200 250 250 250 250 250 250 250 200 200 200 200 200 200 200 200 200 200 150 150 150 150 150 150 150 150 150 150 150 150 150 150 150 0 0 0 0 0 150 150 150 150 150 150 150 150 150 150 150 150 150 150 150 150 150 150 150 150 150 150 150 150 150 150 150 150 150 150 150 150 150 150 150 150 150 150 150 150 150 150 150 0 0 0 0 0 0 150 150 200 200 200 200 200 200 200 200 200 200 200 200 250 250 250 250 250 250 250 250 200 200 200 200 200 200 200 200 200 200 200 150 150 150 150 150 150 150 150 150 150 150 150 150 0 0 0 0 150 150 150 150 150 150 150 150 150 150 150 150 150 150 150 150 150 150 150 150 150 150 150 150 150 150 150 150 150 150 150 150 150 150 150 150 150 150 150 150 150 150 150 0 0 0 0 0 0 150 200 200 200 200 200 200 200 200 200 200 200 200 200 250 250 250 250 250 250 250 250 250 200 200 200 200 200 200 200 200 200 200 200 200 200 150 150 150 150 150 150 150 150 150 150 0 0 0 0 150 150 150 150 150 150 150 150 150 150 150 150 150 150 150 150 150 150 150 150 150 150 150 150 150 150 150 150 150 150 150 150 150 150 150 150 150 150 150 150 150 150 150 0 0 0 0 0 150 200 200 200 200 200 200 200 200 200 200 200 200 200 200 200 250 250 250 250 250 250 250 250 250 250 200 200 200 200 200 200 200 200 200 200 200 200 200 200 150 150 150 150 150 150 150 0 0 0 0 0 150 150 150 150 150 150 150 150 150 150 150 150 150 150 150 150 150 150 150 150 150 150 150 150 150 150 150 150 150 150 150 150 150 150 150 150 150 150 150 150 150 150 0 0 0 0 0 200 200 200 200 200 200 200 200 200 200 200 200 200 200 200 200 250 250 250 250 250 250 250 250 250 250 250 200 200 200 200 200 200 200 200 200 200 200 200 200 200 200 200 150 150 150 150 0 0 0 0 0 150 150 150 150 150 150 150 150 150 150 150 150 150 150 150 150 150 150 150 150 150 150 150 150 150 150 150 150 150 150 150 150 150 150 150 150 150 150 150 150 150 150 0 0 0 0 0 200 200 200 200 200 200 200 200 200 200 200 200 200 200 200 200 200 250 250 250 250 250 250 250 250 250 250 250 250 200 200 200 200 200 200 200 200 200 200 200 200 200 200 200 200 200 150 0 0 0 0 0 150 150 150 150 150 150 150 150 150 150 150 150 150 150 150 150 150 150 150 150 150 150 150 150 150 150 150 150 150 150 150 150 150 150 150 150 150 150 150 150 150 150 150 0 0 0 0 0 200 200 200 200 200 200 200 200 200 200 200 200 200 200 200 200 250 250 250 250 250 250 250 250 250 250 250 250 250 200 200 200 200 200 200 200 200 200 200 200 200 200 200 200 200 200 0 0 0 0 0 150 150 150 150 150 150 150 150 150 150 150 150 150 150 150 150 150 150 150 150 150 150 150 150 150 150 150 150 150 150 150 150 150 150 150 150 150 150 150 150 150 150 0 0 0 0 0 0 200 200 200 200 200 200 200 200 200 200 200 200 200 200 200 200 200 250 250 250 250 250 250 250 250 250 250 250 250 250 250 200 200 200 200 200 200 200 200 200 200 200 200 200 200 0 0 0 0 0 0 150 150 150 150 150 150 150 150 150 150 150 150 150 150 150 150 150 150 150 150 150 150 150 150 150 150 150 150 150 150 150 150 150 150 150 150 150 150 150 150 150 150 0 0 0 0 0 0 200 200 200 200 200 200 200 200 200 200 200 200 200 200 200 200 200 250 250 250 250 250 250 250 250 250 250 250 250 250 250 250 200 200 200 200 200 200 200 200 200 200 200 200 0 0 0 0 0 0 0 200 200 200 150 150 150 150 150 150 150 150 150 150 150 150 150 150 150 150 150 150 150 150 150 150 150 150 150 150 150 150 150 150 150 150 150 150 150 150 150 150 150 0 0 0 0 0 0 200 200 200 200 200 200 200 200 200 200 200 200 200 200 200 200 200 200 250 250 250 250 250 250 250 250 250 250 250 250 250 250 250 250 200 200 200 200 200 200 200 200 200 200 0 0 0 0 0 0 0 200 200 200 200 200 200 150 150 150 150 150 150 150 150 150 150 150 150 150 150 150 150 150 150 150 150 150 150 150 150 150 150 150 150 150 150 150 150 150 150 150 200 0 0 0 0 0 0 200 200 200 200 200 200 200 200 200 200 200 200 200 200 200 200 200 200 250 250 250 250 250 250 250 250 250 250 250 250 250 250 250 250 250 200 200 200 200 200 200 200 200 200 0 0 0 0 0 0 0 200 200 200 200 200 200 200 200 200 150 150 150 150 150 150 150 150 150 150 150 150 150 150 150 150 150 150 150 150 150 150 150 150 150 150 150 150 150 150 150 200 200 200 0 0 0 0 0 200 200 200 200 200 200 200 200 200 200 200 200 200 200 200 200 200 200 200 250 250 250 250 250 250 250 250 250 250 250 250 250 250 250 250 250 250 200 200 200 200 200 200 0 0 0 0 0 0 0 200 200 200 200 200 200 200 200 200 200 200 200 200 150 150 150 150 150 150 150 150 150 150 150 150 150 150 150 150 150 150 150 150 150 150 150 150 150 150 150 200 200 200 200 0 0 0 0 0 200 200 200 200 200 200 200 200 200 200 200 200 200 200 200 200 200 200 200 250 250 250 250 250 250 250 250 250 250 250 250 250 250 250 250 250 250 250 200 200 200 200 0 0 0 0 0 0 0 0 200 200 200 200 200 200 200 200 200 200 200 200 200 200 200 200 150 150 150 150 150 150 150 150 150 150 150 150 150 150 150 150 150 150 150 150 150 150 150 200 200 200 200 200 0 0 0 0 0 200 200 200 200 200 200 200 200 200 200 200 200 200 200 200 200 200 200 200 200 250 250 250 250 250 250 250 250 250 250 250 250 250 250 250 250 250 250 250 250 200 200 0 0 0 0 0 0 0 200 200 200 200 200 200 200 200 200 200 200 200 200 200 200 200 200 200 200 200 150 150 150 150 150 150 150 150 150 150 150 150 150 150 150 150 150 150 150 200 200 200 200 200 200 200 0 0 0 0 200 200 200 200 200 200 200 200 200 200 200 200 200 200 200 200 200 200 200 200 250 250 250 250 250 250 250 250 250 250 250 250 250 250 250 250 250 250 250 250 250 0 0 0 0 0 0 0 0 200 200 200 200 200 200 200 200 200 200 200 200 200 200 200 200 200 200 200 200 200 200 200 150 150 150 150 150 150 150 150 150 150 150 150 150 150 150 200 200 200 200 200 200 200 200 0 0 0 0 0 200 200 200 200 200 200 200 200 200 200 200 200 200 200 200 200 200 200 200 200 250 250 250 250 250 250 250 250 250 250 250 250 250 250 250 250 250 250 250 0 0 0 0 0 0 0 0 0 200 200 200 200 200 200 200 200 200 200 200 200 200 200 200 200 200 200 200 200 200 200 200 200 200 200 150 150 150 150 150 150 150 150 150 150 150 200 200 200 200 200 200 200 200 200 0 0 0 0 0 200 200 200 200 200 200 200 200 200 200 200 200 200 200 200 200 200 200 200 200 250 250 250 250 250 250 250 250 250 250 250 250 250 250 250 250 250 250 0 0 0 0 0 0 0 0 0 200 200 200 200 200 200 200 200 200 200 200 200 200 200 200 200 200 200 200 200 200 200 200 200 200 200 200 200 200 200 150 150 150 150 150 150 150 200 200 200 200 200 200 200 200 200 200 200 0 0 0 0 0 200 200 200 200 200 200 200 200 200 200 200 200 200 200 200 200 200 200 200 200 250 250 250 250 250 250 250 250 250 250 250 250 250 250 250 250 0 0 0 0 0 0 0 0 0 200 200 200 200 200 200 200 200 200 200 200 200 200 200 200 200 200 200 200 200 200 200 200 200 200 200 200 200 200 200 200 200 200 200 150 150 150 200 200 200 200 200 200 200 200 200 200 200 200 200 0 0 0 0 200 200 200 200 200 200 200 200 200 200 200 200 200 200 200 200 200 200 200 200 250 250 250 250 250 250 250 250 250 250 250 250 250 250 250 0 0 0 0 0 0 0 0 0 250 200 200 200 200 200 200 200 200 200 200 200 200 200 200 200 200 200 200 200 200 200 200 200 200 200 200 200 200 200 200 200 200 200 200 200 200 200 150 200 200 200 200 200 200 200 200 200 200 200 200 0 0 0 0 0 200 200 200 200 200 200 200 200 200 200 200 200 200 200 200 200 200 200 200 200 250 250 250 250 250 250 250 250 250 250 250 250 250 0 0 0 0 0 0 0 0 0 250 250 250 250 200 200 200 200 200 200 200 200 200 200 200 200 200 200 200 200 200 200 200 200 200 200 200 200 200 200 200 200 200 200 200 200 200 200 200 200 200 200 200 200 200 200 200 200 200 200 200 200 200 0 0 0 0 200 200 200 200 200 200 200 200 200 200 200 200 200 200 200 200 200 200 200 200 250 250 250 250 250 250 250 250 250 250 250 250 0 0 0 0 0 0 0 0 0 250 250 250 250 250 250 200 200 200 200 200 200 200 200 200 200 200 200 200 200 200 200 200 200 200 200 200 200 200 200 200 200 200 200 200 200 200 200 200 200 200 200 200 200 200 200 200 200 200 200 200 200 200 200 0 0 0 0 0 200 200 200 200 200 200 200 200 200 200 200 200 200 200 200 200 200 200 200 200 250 250 250 250 250 250 250 250 250 250 0 0 0 0 0 0 0 0 0 250 250 250 250 250 250 250 250 250 200 200 200 200 200 200 200 200 200 200 200 200 200 200 200 200 200 200 200 200 200 200 200 200 200 200 200 200 200 200 200 200 200 200 200 200 200 200 200 200 200 200 200 200 200 200 200 0 0 0 0 200 200 200 200 200 200 200 200 200 200 200 200 200 200 200 200 200 200 200 200 250 250 250 250 250 250 250 250 0 0 0 0 0 0 0 0 0 0 250 250 250 250 250 250 250 250 250 250 250 200 200 200 200 200 200 200 200 200 200 200 200 200 200 200 200 200 200 200 200 200 200 200 200 200 200 200 200 200 200 200 200 200 200 200 200 200 200 200 200 200 200 200 200 200 200 200 0 0 0 0 200 200 200 200 200 200 200 200 200 200 200 200 200 200 200 200 200 200 200 200 250 250 250 250 250 250 250 0 0 0 0 0 0 0 0 0 250 250 250 250 250 250 250 250 250 250 250 250 250 250 200 200 200 200 200 200 200 200 200 200 200 200 200 200 200 200 200 200 200 200 200 200 200 200 200 200 200 200 200 200 200 200 200 200 200 200 200 200 200 200 200 200 200 200 200 200 0 0 0 0 200 200 200 200 200 200 200 200 200 200 200 200 200 200 200 200 200 200 200 250 250 250 250 250 250 250 250 0 0 0 0 0 0 0 250 250 250 250 250 250 250 250 250 250 250 250 250 250 250 250 200 200 200 200 200 200 200 200 200 200 200 200 200 200 200 200 200 200 200 200 200 200 200 200 200 200 200 200 200 200 200 200 200 200 200 200 200 200 200 200 200 200 200 200 200 200 0 0 0 0 200 200 200 200 200 200 200 200 200 200 200 200 200 200 200 200 200 200 200 250 250 250 250 250 250 250 250 0 0 0 0 0 250 250 250 250 250 250 250 250 250 250 250 250 250 250 250 250 250 250 250 200 200 200 200 200 200 200 200 200 200 200 200 200 200 200 200 200 200 200 200 200 200 200 200 200 200 200 200 200 200 200 200 200 200 200 200 200 200 200 200 200 200 200 200 200 0 0 0 0 200 200 200 200 200 200 200 200 200 200 200 200 200 200 200 200 200 200 250 250 250 250 250 250 250 250 250 0 0 0 0 250 250 250 250 250 250 250 250 250 250 250 250 250 250 250 250 250 250 250 250 200 200 200 200 200 200 200 200 200 200 200 200 200 200 200 200 200 200 200 200 200 200 200 200 200 200 200 200 200 200 200 200 200 200 200 200 200 200 200 200 200 200 200 200 200 0 0 0 0 200 200 200 200 200 200 200 200 200 200 200 200 200 200 200 200 200 200 250 250 250 250 250 250 250 250 250 0 0 0 0 250 250 250 250 250 250 250 250 250 250 250 250 250 250 250 250 250 250 250 250 250 200 200 200 200 200 200 200 200 200 200 200 200 200 200 200 200 200 200 200 200 200 200 200 200 200 200 200 200 200 200 200 200 200 200 200 200 200 200 200 200 200 200 200 200 0 0 0 0 200 200 200 200 200 200 200 200 200 200 200 200 200 200 200 200 200 250 250 250 250 250 250 250 250 250 250 0 0 0 0 250 250 250 250 250 250 250 250 250 250 250 250 250 250 250 250 250 250 250 250 250 200 200 200 200 200 200 200 200 200 200 200 200 200 200 200 200 200 200 200 200 200 200 200 200 200 200 200 200 200 200 200 200 200 200 200 200 200 200 200 200 200 200 200 200 0 0 0 0 200 200 200 200 200 200 200 200 200 200 200 200 200 200 200 200 200 250 250 250 250 250 250 250 250 250 250 0 0 0 0 250 250 250 250 250 250 250 250 250 250 250 250 250 250 250 250 250 250 250 250 250 250 200 200 200 200 200 200 200 200 200 200 200 200 200 200 200 200 200 200 200 200 200 200 200 200 200 200 200 200 200 200 200 200 200 200 200 200 200 200 200 200 200 200 200 0 0 0 0 200 200 200 200 200 200 200 200 200 200 200 200 200 200 200 200 250 250 250 250 250 250 250 250 250 250 250 0 0 0 0 250 250 250 250 250 250 250 250 250 250 250 250 250 250 250 250 250 250 250 250 250 250 200 200 200 200 200 200 200 200 200 200 200 200 200 200 200 200 200 200 200 200 200 200 200 200 200 200 200 200 200 200 200 200 200 200 200 200 200 200 200 200 200 200 200 0 0 0 0 200 200 200 200 200 200 200 200 200 200 200 200 200 200 200 200 250 250 250 250 250 250 250 250 250 250 250 0 0 0 0 250 250 250 250 250 250 250 250 250 250 250 250 250 250 250 250 250 250 250 250 250 250 250 200 200 200 200 200 200 200 200 200 200 200 200 200 200 200 200 200 200 200 200 200 200 200 200 200 200 200 200 200 200 200 200 200 200 200 200 200 200 200 200 200 200 0 0 0 0 200 200 200 200 200 200 200 200 200 200 200 200 200 200 200 250 250 250 250 250 250 250 250 250 250 250 250 0 0 0 0 250 250 250 250 250 250 250 250 250 250 250 250 250 250 250 250 250 250 250 250 250 250 250 200 200 200 200 200 200 200 200 200 200 200 200 200 200 200 200 200 200 200 200 200 200 200 200 200 200 200 200 200 200 200 200 200 200 200 200 200 200 200 200 200 200 0 0 0 0 200 200 200 200 200 200 200 200 200 200 200 200 200 200 200 250 250 250 250 250 250 250 250 250 250 250 250 0 0 0 0 250 250 250 250 250 250 250 250 250 250 250 250 250 250 250 250 250 250 250 250 250 250 250 250 200 200 200 200 200 200 200 200 200 200 200 200 200 200 200 200 200 200 200 200 200 200 200 200 200 200 200 200 200 200 200 200 200 200 200 200 200 200 200 200 200 0 0 0 0 200 200 200 200 200 200 200 200 200 200 200 200 200 200 250 250 250 250 250 250 250 250 250 250 250 250 250 0 0 0 0 250 250 250 250 250 250 250 250 250 250 250 250 250 250 250 250 250 250 250 250 250 250 250 250 200 200 200 200 200 200 200 200 200 200 200 200 200 200 200 200 200 200 200 200 200 200 200 200 200 200 200 200 200 200 200 200 200 200 200 200 200 200 200 200 200 0 0 0 0 0 200 200 200 200 200 200 200 200 200 200 200 200 200 250 250 250 250 250 250 250 250 250 250 250 250 250 0 0 0 0 250 250 250 250 250 250 250 250 250 250 250 250 250 250 250 250 250 250 250 250 250 250 250 250 250 200 200 200 200 200 200 200 200 200 200 200 200 200 200 200 200 200 200 200 200 200 200 200 200 200 200 200 200 200 200 200 200 200 200 200 200 200 200 200 200 200 0 0 0 0 200 200 200 200 200 200 200 200 200 200 200 200 250 250 250 250 250 250 250 250 250 250 250 250 250 250 0 0 0 0 250 250 250 250 250 250 250 250 250 250 250 250 250 250 250 250 250 250 250 250 250 250 250 250 250 200 200 200 200 200 200 200 200 200 200 200 200 200 200 200 200 200 200 200 200 200 200 200 200 200 200 200 200 200 200 200 200 200 200 200 200 200 200 200 200 200 0 0 0 0 200 200 200 200 200 200 200 200 200 200 200 200 250 250 250 250 250 250 250 250 250 250 250 250 250 250 0 0 0 0 250 250 250 250 250 250 250 250 250 250 250 250 250 250 250 250 250 250 250 250 250 250 250 250 250 250 200 200 200 200 200 200 200 200 200 200 200 200 200 200 200 200 200 200 200 200 200 200 200 200 200 200 200 200 200 200 200 200 200 200 200 200 200 200 200 200 0 0 0 0 0 200 200 200 200 200 200 200 200 200 200 250 250 250 250 250 250 250 250 250 250 250 250 250 250 250 0 0 0 0 250 250 250 250 250 250 250 250 250 250 250 250 250 250 250 250 250 250 250 250 250 250 250 250 250 250 200 200 200 200 200 200 200 200 200 200 200 200 200 200 200 200 200 200 200 200 200 200 200 200 200 200 200 200 200 200 200 200 200 200 200 200 200 200 200 200 200 0 0 0 0 200 200 200 200 200 200 200 200 200 200 250 250 250 250 250 250 250 250 250 250 250 250 250 250 250 0 0 0 0 0 250 250 250 250 250 250 250 250 250 250 250 250 250 250 250 250 250 250 250 250 250 250 250 250 250 250 200 200 200 200 200 200 200 200 200 200 200 200 200 200 200 200 200 200 200 200 200 200 200 200 200 200 200 200 200 200 200 200 200 200 200 200 200 200 200 200 0 0 0 0 200 200 200 200 200 200 200 200 200 250 250 250 250 250 250 250 250 250 250 250 250 250 250 250 250 250 0 0 0 0 250 250 250 250 250 250 250 250 250 250 250 250 250 250 250 250 250 250 250 250 250 250 250 250 250 250 200 200 200 200 200 200 200 200 200 200 200 200 200 200 200 200 200 200 200 200 200 200 200 200 200 200 200 200 200 200 200 200 200 200 200 200 200 200 200 200 0 0 0 0 0 200 200 200 200 200 200 200 200 250 250 250 250 250 250 250 250 250 250 250 250 250 250 250 250 250 0 0 0 0 250 250 250 250 250 250 250 250 250 250 250 250 250 250 250 250 250 250 250 250 250 250 250 250 250 250 250 200 200 200 200 200 200 200 200 200 200 200 200 200 200 200 200 200 200 200 200 200 200 200 200 200 200 200 200 200 200 200 200 200 200 200 200 200 200 200 200 0 0 0 0 200 200 200 200 200 200 200 250 250 250 250 250 250 250 250 250 250 250 250 250 250 250 250 250 250 0 0 0 0 0 250 250 250 250 250 250 250 250 250 250 250 250 250 250 250 250 250 250 250 250 250 250 250 250 250 250 200 200 200 200 200 200 200 200 200 200 200 200 200 200 200 200 200 200 200 200 200 200 200 200 200 200 200 200 200 200 200 200 200 200 200 200 200 200 200 200 0 0 0 0 200 200 200 200 200 200 200 250 250 250 250 250 250 250 250 250 250 250 250 250 250 250 250 250 250 250 0 0 0 0 250 250 250 250 250 250 250 250 250 250 250 250 250 250 250 250 250 250 250 250 250 250 250 250 250 250 250 200 200 200 200 200 200 200 200 200 200 200 200 200 200 200 200 200 200 200 200 200 200 200 200 200 200 200 200 200 200 200 200 200 200 200 200 200 200 200 0 0 0 0 0 200 200 200 200 200 250 250 250 250 250 250 250 250 250 250 250 250 250 250 250 250 250 250 250 250 0 0 0 0 0 250 250 250 250 250 250 250 250 250 250 250 250 250 250 250 250 250 250 250 250 250 250 250 250 250 250 200 200 200 200 200 200 200 200 200 200 200 200 200 200 200 200 200 200 200 200 200 200 200 200 200 200 200 200 200 200 200 200 200 200 200 200 200 200 200 200 0 0 0 0 200 200 200 200 200 250 250 250 250 250 250 250 250 250 250 250 250 250 250 250 250 250 250 250 250 250 0 0 0 0 0 250 250 250 250 250 250 250 250 250 250 250 250 250 250 250 250 250 250 250 250 250 250 250 250 250 250 200 200 200 200 200 200 200 200 200 200 200 200 200 200 200 200 200 200 200 200 200 200 200 200 200 200 200 200 200 200 200 200 200 200 200 200 200 200 200 0 0 0 0 200 200 200 200 250 250 250 250 250 250 250 250 250 250 250 250 250 250 250 250 250 250 250 250 250 250 0 0 0 0 0 250 250 250 250 250 250 250 250 250 250 250 250 250 250 250 250 250 250 250 250 250 250 250 250 250 250 200 200 200 200 200 200 200 200 200 200 200 200 200 200 200 200 200 200 200 200 200 200 200 200 200 200 200 200 200 200 200 200 200 200 200 200 200 200 200 0 0 0 0 0 200 200 200 250 250 250 250 250 250 250 250 250 250 250 250 250 250 250 250 250 250 250 250 250 250 250 0 0 0 0 0 250 250 250 250 250 250 250 250 250 250 250 250 250 250 250 250 250 250 250 250 250 250 250 250 250 250 200 200 200 200 200 200 200 200 200 200 200 200 200 200 200 200 200 200 200 200 200 200 200 200 200 200 200 200 200 200 200 200 200 200 200 200 200 200 200 0 0 0 0 200 200 250 250 250 250 250 250 250 250 250 250 250 250 250 250 250 250 250 250 250 250 250 250 250 250 250 0 0 0 0 250 250 250 250 250 250 250 250 250 250 250 250 250 250 250 250 250 250 250 250 250 250 250 250 250 250 200 200 200 200 200 200 200 200 200 200 200 200 200 200 200 200 200 200 200 200 200 200 200 200 200 200 200 200 200 200 200 200 200 200 200 200 200 200 200 0 0 0 0 200 200 250 250 250 250 250 250 250 250 250 250 250 250 250 250 250 250 250 250 250 250 250 250 250 250 250 0 0 0 0 0 250 250 250 250 250 250 250 250 250 250 250 250 250 250 250 250 250 250 250 250 250 250 250 250 250 250 200 200 200 200 200 200 200 200 200 200 200 200 200 200 200 200 200 200 200 200 200 200 200 200 200 200 200 200 200 200 200 200 200 200 200 200 200 200 0 0 0 0 0 250 250 250 250 250 250 250 250 250 250 250 250 250 250 250 250 250 250 250 250 250 250 250 250 250 250 250 0 0 0 0 250 250 250 250 250 250 250 250 250 250 250 250 250 250 250 250 250 250 250 250 250 250 250 250 250 250 200 200 200 200 200 200 200 200 200 200 200 200 200 200 200 200 200 200 200 200 200 200 200 200 200 200 200 200 200 200 200 200 200 200 200 200 200 200 200 0 0 0 0 250 250 250 250 250 250 250 250 250 250 250 250 250 250 250 250 250 250 250 250 250 250 250 250 250 250 250 0 0 0 0 0 250 250 250 250 250 250 250 250 250 250 250 250 250 250 250 250 250 250 250 250 250 250 250 250 250 250 200 200 200 200 200 200 200 200 200 200 200 200 200 200 200 200 200 200 200 200 200 200 200 200 200 200 200 200 200 200 200 200 200 200 200 200 200 200 0 0 0 0 0 250 250 250 250 250 250 250 250 250 250 250 250 250 250 250 250 250 250 250 250 250 250 250 250 250 250 250 0 0 0 0 250 250 250 250 250 250 250 250 250 250 250 250 250 250 250 250 250 250 250 250 250 250 250 250 250 250 200 200 200 200 200 200 200 200 200 200 200 200 200 200 200 200 200 200 200 200 200 200 200 200 200 200 200 200 200 200 200 200 200 200 200 200 200 200 200 0 0 0 0 250 250 250 250 250 250 250 250 250 250 250 250 250 250 250 250 250 250 250 250 250 250 250 250 250 250 250 0 0 0 0 250 250 250 250 250 250 250 250 250 250 250 250 250 250 250 250 250 250 250 250 250 250 250 250 250 250 250 200 200 200 200 200 200 200 200 200 200 200 200 200 200 200 200 200 200 200 200 200 200 200 200 200 200 200 200 200 200 200 200 200 200 200 200 200 200 0 0 0 0 250 250 250 250 250 250 250 250 250 250 250 250 250 250 250 250 250 250 250 250 250 250 250 250 250 250 250 0 0 0 0 250 250 250 250 250 250 250 250 250 250 250 250 250 250 250 250 250 250 250 250 250 250 250 250 250 250 250 200 200 200 200 200 200 200 200 200 200 200 200 200 200 200 200 200 200 200 200 200 200 200 200 200 200 200 200 200 200 200 200 200 200 200 200 200 200 0 0 0 0 0 250 250 250 250 250 250 250 250 250 250 250 250 250 250 250 250 250 250 250 250 250 250 250 250 250 250 0 0 0 0 250 250 250 250 250 250 250 250 250 250 250 250 250 250 250 250 250 250 250 250 250 250 250 250 250 250 250 250 200 200 200 200 200 200 200 200 200 200 200 200 200 200 200 200 200 200 200 200 200 200 200 200 200 200 200 200 200 200 200 200 200 200 200 200 200 250 0 0 0 0 250 250 250 250 250 250 250 250 250 250 250 250 250 250 250 250 250 250 250 250 250 250 250 250 250 250 0 0 0 0 250 250 250 250 250 250 250 250 250 250 250 250 250 250 250 250 250 250 250 250 250 250 250 250 250 250 250 250 200 200 200 200 200 200 200 200 200 200 200 200 200 200 200 200 200 200 200 200 200 200 200 200 200 200 200 200 200 200 200 200 200 200 200 200 200 250 0 0 0 0 250 250 250 250 250 250 250 250 250 250 250 250 250 250 250 250 250 250 250 250 250 250 250 250 250 250 0 0 0 0 250 250 250 250 250 250 250 250 250 250 250 250 250 250 250 250 250 250 250 250 250 250 250 250 250 250 250 250 250 200 200 200 200 200 200 200 200 200 200 200 200 200 200 200 200 200 200 200 200 200 200 200 200 200 200 200 200 200 200 200 200 200 200 200 250 250 0 0 0 0 0 250 250 250 250 250 250 250 250 250 250 250 250 250 250 250 250 250 250 250 250 250 250 250 250 250 0 0 0 0 250 250 250 250 250 250 250 250 250 250 250 250 250 250 250 250 250 250 250 250 250 250 250 250 250 250 250 250 250 200 200 200 200 200 200 200 200 200 200 200 200 200 200 200 200 200 200 200 200 200 200 200 200 200 200 200 200 200 200 200 200 200 200 200 250 250 250 0 0 0 0 0 250 250 250 250 250 250 250 250 250 250 250 250 250 250 250 250 250 250 250 250 250 250 250 0 0 0 0 0 250 250 250 250 250 250 250 250 250 250 250 250 250 250 250 250 250 250 250 250 250 250 250 250 250 250 250 250 250 250 200 200 200 200 200 200 200 200 200 200 200 200 200 200 200 200 200 200 200 200 200 200 200 200 200 200 200 200 200 200 200 200 200 250 250 250 250 0 0 0 0 0 250 250 250 250 250 250 250 250 250 250 250 250 250 250 250 250 250 250 250 250 250 250 250 0 0 0 0 250 250 250 250 250 250 250 250 250 250 250 250 250 250 250 250 250 250 250 250 250 250 250 250 250 250 250 250 250 250 250 200 200 200 200 200 200 200 200 200 200 200 200 200 200 200 200 200 200 200 200 200 200 200 200 200 200 200 200 200 200 200 200 200 250 250 250 250 250 0 0 0 0 0 250 250 250 250 250 250 250 250 250 250 250 250 250 250 250 250 250 250 250 250 250 250 0 0 0 0 250 250 250 250 250 250 250 250 250 250 250 250 250 250 250 250 250 250 250 250 250 250 250 250 250 250 250 250 250 250 250 250 200 200 200 200 200 200 200 200 200 200 200 200 200 200 200 200 200 200 200 200 200 200 200 200 200 200 200 200 200 200 200 250 250 250 250 250 250 250 0 0 0 0 0 250 250 250 250 250 250 250 250 250 250 250 250 250 250 250 250 250 250 250 250 250 0 0 0 0 250 250 250 250 250 250 250 250 250 250 250 250 250 250 250 250 250 250 250 250 250 250 250 250 250 250 250 250 250 250 250 250 200 200 200 200 200 200 200 200 200 200 200 200 200 200 200 200 200 200 200 200 200 200 200 200 200 200 200 200 200 200 200 250 250 250 250 250 250 250 250 0 0 0 0 0 250 250 250 250 250 250 250 250 250 100 250 250 250 250 250 250 250 250 250 0 0 0 0 0 250 250 250 250 250 250 250 250 250 250 250 250 250 250 250 250 250 250 250 250 250 250 250 250 250 250 250 250 250 250 250 250 250 200 200 200 200 200 200 200 200 200 200 200 200 200 200 200 200 200 200 200 200 200 200 200 200 200 200 200 200 200 250 250 250 250 250 250 250 250 250 0 0 0 0 0 250 250 250 250 250 250 250 250 250 250 250 250 250 250 250 250 250 250 250 0 0 0 0 0 250 250 250 250 250 250 250 250 250 250 250 250 250 250 250 250 250 250 250 250 250 250 250 250 250 250 250 250 250 250 250 250 250 200 200 200 200 200 200 200 200 200 200 200 200 200 200 200 200 200 200 200 200 200 200 200 200 200 200 200 200 200 250 250 250 250 250 250 250 250 250 250 0 0 0 0 0 250 250 250 250 250 250 250 250 250 250 250 250 250 250 250 250 250 250 0 0 0 0 250 250 250 250 250 250 250 250 250 250 250 250 250 250 250 250 250 250 250 250 250 250 250 250 250 250 250 250 250 250 250 250 250 250 250 200 200 200 200 200 200 200 200 200 200 200 200 200 200 200 200 200 200 200 200 200 200 200 200 200 200 200 250 250 250 250 250 250 250 250 250 250 250 250 0 0 0 0 250 250 250 250 250 250 250 250 250 250 250 250 250 250 250 250 250 250 0 0 0 0 250 250 250 250 250 250 250 250 250 250 250 250 250 250 250 250 250 250 250 250 250 250 250 250 250 250 250 250 250 250 250 250 250 250 250 200 200 200 200 200 200 200 200 200 200 200 200 200 200 200 200 200 200 200 200 200 200 200 200 200 200 200 250 250 250 250 250 250 250 250 250 250 250 250 0 0 0 0 250 250 250 250 250 250 250 250 250 250 250 250 250 250 250 250 250 250 0 0 0 0 250 250 250 250 250 250 250 250 250 250 250 250 250 250 250 250 250 250 250 250 250 250 250 250 250 250 250 250 250 250 250 250 250 250 250 250 200 200 200 200 200 200 200 200 200 200 200 200 200 200 200 200 200 200 200 200 200 200 200 200 200 250 250 250 250 250 250 250 250 250 250 250 250 250 0 0 0 0 250 250 250 250 250 250 250 250 250 250 250 250 250 250 250 250 250 0 0 0 0 0 250 250 250 250 250 250 250 250 250 250 250 250 250 250 250 250 250 250 250 250 250 250 250 250 250 250 250 250 250 250 250 250 250 250 250 250 200 200 200 200 200 200 200 200 200 200 200 200 200 200 200 200 200 200 200 200 200 200 200 200 200 250 250 250 250 250 250 250 250 250 250 250 250 250 0 0 0 0 250 250 250 250 250 250 250 250 250 250 250 250 250 250 250 250 250 0 0 0 0 250 250 250 250 250 250 250 250 250 250 250 250 250 250 250 250 250 250 250 250 250 250 250 250 250 250 250 250 250 250 250 250 250 250 250 250 250 250 200 200 200 200 200 200 200 200 200 200 200 200 200 200 200 200 200 200 200 200 200 200 200 250 250 250 250 250 250 250 250 250 250 250 250 250 0 0 0 0 0 0 0 250 250 250 250 250 250 250 250 250 250 250 250 250 250 0 0 0 0 0 250 250 250 250 250 250 250 250 250 250 250 250 250 250 250 250 250 250 250 250 250 250 250 250 250 250 250 250 250 250 250 250 250 250 250 250 250 250 200 200 200 200 200 200 200 200 200 200 200 200 200 200 200 200 200 200 200 200 200 200 200 250 250 250 250 250 250 250 250 250 250 250 250 250 0 0 0 0 0 0 0 0 250 250 250 250 250 250 250 250 250 250 0 0 0 0 0 0 0 250 250 250 250 250 250 250 250 250 250 250 250 250 250 250 250 250 250 250 250 250 250 250 250 250 250 250 250 250 250 250 250 250 250 250 250 250 250 250 250 200 200 200 200 200 200 200 200 200 200 200 200 200 200 200 200 200 200 200 200 200 250 250 250 250 250 250 250 250 250 250 250 250 250 250 250 0 0 0 0 0 0 0 0 0 0 0 0 0 0 0 0 0 0 0 0 0 0 0 0 250 250 250 250 250 250 250 250 250 250 250 250 250 250 250 250 250 250 250 250 250 250 250 250 250 250 250 250 250 250 250 250 250 250 250 250 250 250 250 250 200 200 200 200 200 200 200 200 200 200 200 200 200 200 200 200 200 200 200 200 200 250 250 250 250 250 250 250 250 250 250 250 250 250 250 250 250 250 0 0 0 0 0 0 0 0 0 0 0 0 0 0 0 0 0 0 0 0 0 250 250 250 250 250 250 250 250 250 250 250 250 250 250 250 250 250 250 250 250 250 250 250 250 250 250 250 250 250 250 250 250 250 250 250 250 250 250 250 250 250 250 200 200 200 200 200 200 200 200 200 200 200 200 200 200 200 200 200 200 200 250 250 250 250 250 250 250 250 250 250 250 250 250 250 250 250 250 250 250 250 0 0 0 0 0 0 0 0 0 0 0 0 0 0 0 0 0 250 250 250 250 250 250 250 250 250 250 250 250 250 250 250 250 250 250 250 250 250 250 250 250 250 250 250 250 250 250 250 250 250 250 250 250 250 250 250 250 250 250 250 250 200 200 200 200 200 200 200 200 200 200 